External Loads File
version=1
nRows=30
nColumns=13
Range=5.000000e-03-10 seconds
endheader
time 	forceRightX 	forceRightY 	forceRightZ 	pointRightX 	pointRightY 	pointRightZ 	forceLeftX 	forceLeftY 	forceLeftZ 	pointLeftX 	pointLeftY 	pointLeftZ 		
2.505000 117.321739 257.831690 -0.000000 0.316441 0.159585 -0.193857 -95.663225 92.678621 -0.000000 0.324899 0.503324 -0.442358
2.510000 118.348328 228.889042 -0.000000 0.307502 0.160158 -0.193360 -96.856397 115.695052 -0.000000 0.330588 0.502892 -0.442447
2.515000 118.568131 200.816460 -0.000000 0.298640 0.161275 -0.192507 -97.879232 140.492239 -0.000000 0.336248 0.502052 -0.442454
2.520000 117.982918 173.659047 -0.000000 0.289799 0.162608 -0.191574 -99.117829 167.275826 -0.000000 0.341782 0.500949 -0.442544
2.525000 116.702086 147.269174 -0.000000 0.281061 0.164363 -0.190793 -100.880670 196.277752 -0.000000 0.347283 0.499360 -0.442634
2.530000 114.753285 121.459683 -0.000000 0.272441 0.166528 -0.190272 -103.465851 227.596890 -0.000000 0.352624 0.497287 -0.442819
2.535000 112.118617 96.028718 -0.000000 0.264007 0.169027 -0.189775 -107.091569 261.116558 -0.000000 0.357909 0.494826 -0.442911
2.540000 108.724832 70.810535 -0.000000 0.255717 0.171908 -0.189189 -111.885749 296.357381 -0.000000 0.362951 0.491935 -0.443164
2.545000 104.510809 45.626929 -0.000000 0.247887 0.175143 -0.188673 -117.622031 332.510255 -0.000000 0.368238 0.488670 -0.443416
2.550000 99.324841 20.533239 -0.000000 0.240146 0.178464 -0.188214 -124.334818 368.351974 -0.000000 0.373479 0.484888 -0.443493
2.555000 93.102201 -4.371271 -0.000000 0.232622 0.182153 -0.187762 -131.810686 402.685854 -0.000000 0.378744 0.480818 -0.443736
2.560000 85.845762 -28.799239 -0.000000 0.225529 0.186180 -0.187173 -140.054317 434.336823 -0.000000 0.384091 0.476364 -0.443831
2.565000 77.586640 -52.462405 -0.000000 0.218561 0.190436 -0.186806 -148.326328 462.558464 -0.000000 0.389670 0.471669 -0.444146
2.570000 68.539151 -74.700045 -0.000000 0.211720 0.194926 -0.186252 -157.250671 486.442425 -0.000000 0.395025 0.466566 -0.444202
2.575000 58.825979 -95.061784 -0.000000 0.205131 0.199711 -0.186096 -165.980549 505.882105 -0.000000 0.400551 0.461283 -0.444376
2.580000 48.774168 -112.947274 -0.000000 0.198875 0.204851 -0.185781 -174.773738 520.745248 -0.000000 0.406047 0.455840 -0.444393
2.585000 38.666340 -127.916257 -0.000000 0.192730 0.210197 -0.185519 -183.266831 531.425288 -0.000000 0.411562 0.450259 -0.444406
2.590000 29.000479 -139.606447 -0.000000 0.186636 0.215713 -0.185652 -191.830391 538.372014 -0.000000 0.416754 0.444476 -0.444526
2.595000 19.955912 -147.923223 -0.000000 0.181169 0.221439 -0.185503 -199.499011 542.761657 -0.000000 0.422246 0.438431 -0.444406
2.600000 12.081167 -152.895214 -0.000000 0.175825 0.227437 -0.185500 -206.894309 545.371191 -0.000000 0.427365 0.432113 -0.444376
2.605000 5.692225 -154.805904 -0.000000 0.170943 0.233613 -0.185610 -214.078494 547.215699 -0.000000 0.432278 0.425629 -0.444253
2.610000 0.838450 -154.097875 -0.000000 0.166239 0.240007 -0.185616 -220.628429 549.447139 -0.000000 0.437165 0.418886 -0.444233
2.615000 -2.377474 -151.293065 -0.000000 0.161608 0.246639 -0.185756 -226.722779 552.815467 -0.000000 0.441600 0.411960 -0.444215
2.620000 -4.230455 -146.943063 -0.000000 0.157437 0.253707 -0.185923 -231.523947 558.207740 -0.000000 0.445950 0.404713 -0.444144
2.625000 -4.617117 -141.595991 -0.000000 0.153775 0.260904 -0.185964 -235.950439 565.484461 -0.000000 0.449999 0.397389 -0.444058
2.630000 -4.002451 -135.733464 -0.000000 0.150448 0.268392 -0.186093 -239.109379 575.012505 -0.000000 0.453810 0.389868 -0.443899
2.635000 -2.564543 -129.755737 -0.000000 0.147440 0.275980 -0.186142 -241.439564 586.444400 -0.000000 0.457231 0.382143 -0.443789
2.640000 -0.671406 -123.956885 -0.000000 0.144686 0.283870 -0.186297 -242.629378 599.636175 -0.000000 0.460266 0.374312 -0.443776
2.645000 1.447581 -118.541521 -0.000000 0.142490 0.291849 -0.186533 -242.909221 614.153516 -0.000000 0.462995 0.366308 -0.443725
2.650000 3.504399 -113.634063 -0.000000 0.140784 0.299988 -0.186703 -242.120988 629.692716 -0.000000 0.465538 0.358144 -0.443625
